Coordinates
version=1
nRows=17
nColumns=24
inDegrees=yes

Units are S.I. units (second, meters, Newtons, ...)
Angles are in degrees.

endheader
time	pelvis_tilt	pelvis_list	pelvis_rotation	pelvis_tx	pelvis_ty	pelvis_tz	hip_flexion_r	hip_adduction_r	hip_rotation_r	knee_angle_r	ankle_angle_r	subtalar_angle_r	mtp_angle_r	hip_flexion_l	hip_adduction_l	hip_rotation_l	knee_angle_l	ankle_angle_l	subtalar_angle_l	mtp_angle_l	lumbar_extension	lumbar_bending	lumbar_rotation
      1.10833333	      0.73290883	     -5.17848061	     -1.92248876	     -0.21422020	      1.00941984	      0.33029405	    -15.85884170	     10.23518979	      4.80337975	     -4.98576528	     13.72766742	     -4.18821401	      4.60753331	     18.23267118	     -4.65267123	     -2.81297368	     10.09089147	      1.15947614	     -5.12691710	     -4.40366868	     -3.68903683	      3.38498649	      9.32281185
      1.11250000	      0.70814946	     -5.05587189	     -2.03366475	     -0.20865622	      1.00870047	      0.33008495	    -15.88924221	     10.05543429	      4.65352017	     -5.56943531	     14.12851949	     -3.79662891	      4.52923850	     18.27017531	     -4.48658455	     -2.54898165	      9.82322177	      1.19733699	     -5.21985644	     -4.23405194	     -3.65227707	      3.24851352	      9.46008787
      1.11666667	      0.71471333	     -4.91343389	     -2.13202597	     -0.20307162	      1.00807258	      0.32986779	    -15.96027173	      9.86192300	      4.58862524	     -6.13051742	     14.42665162	     -3.61373355	      4.43545440	     18.29016042	     -4.29631237	     -2.30787653	      9.46226223	      1.22293713	     -5.30151678	     -3.99119542	     -3.64805367	      3.07350884	      9.51303515
      1.12083333	      0.73119666	     -4.76049095	     -2.21534259	     -0.19744622	      1.00747837	      0.32967760	    -16.05464957	      9.67178354	      4.62923075	     -6.66301428	     14.61876139	     -3.65286857	      4.40546728	     18.31091031	     -4.09569549	     -2.05697837	      9.02426989	      1.24256269	     -5.38130503	     -3.87727978	     -3.64047269	      2.85535792	      9.54737630
      1.12500000	      0.75201077	     -4.58862518	     -2.30173378	     -0.19182048	      1.00692639	      0.32943218	    -16.08809785	      9.45100032	      4.50335114	     -7.32703064	     14.90858468	     -3.43117218	      4.33634237	     18.33425739	     -3.86996715	     -1.80717610	      8.52823444	      1.13567500	     -5.62307493	     -3.54710536	     -3.65737713	      2.66549120	      9.64533008
      1.12916667	      0.79974779	     -4.39435642	     -2.36821458	     -0.18612820	      1.00645032	      0.32919734	    -16.18387528	      9.22428003	      4.53597760	     -7.91896081	     15.02986437	     -3.56385527	      4.32521389	     18.34607017	     -3.61658267	     -1.61283638	      7.95083343	      1.09572950	     -5.72020814	     -3.46662268	     -3.68390982	      2.41782006	      9.65825550
      1.13333333	      0.81357879	     -4.19441960	     -2.44428083	     -0.18042624	      1.00595316	      0.32893047	    -16.18245525	      8.98068386	      4.44258995	     -8.64098828	     15.29149462	     -3.35357788	      4.28528741	     18.38287147	     -3.35965528	     -1.32521577	      7.36704126	      0.86308252	     -6.09377441	     -3.06017705	     -3.68197350	      2.16782399	      9.74468479
      1.13750000	      0.89317504	     -3.98338439	     -2.49698586	     -0.17468855	      1.00558716	      0.32864970	    -16.27147903	      8.74125171	      4.45220816	     -9.31173384	     15.35005761	     -3.53024585	      4.28013220	     18.37949698	     -3.08070818	     -1.16819100	      6.69059165	      0.76177070	     -6.21956005	     -2.98075434	     -3.74649321	      1.92101577	      9.75381607
      1.14166667	      0.92299313	     -3.77796586	     -2.55682590	     -0.16892858	      1.00518165	      0.32835704	    -16.25087001	      8.50024966	      4.35423049	    -10.10575166	     15.54152815	     -3.37608179	      4.27188149	     18.40195734	     -2.81177166	     -0.84280983	      6.05418889	      0.37780329	     -6.78916478	     -2.42141534	     -3.73365973	      1.65496893	      9.81911114
      1.14583333	      1.02042141	     -3.54474302	     -2.59261860	     -0.16310876	      1.00490098	      0.32805808	    -16.33774764	      8.24685448	      4.38719543	    -10.81842609	     15.52328851	     -3.58121019	      4.33826735	     18.37703037	     -2.50596938	     -0.66369450	      5.35313689	      0.01780703	     -7.10661639	      1.84593843	     -3.81779724	      1.34853416	      9.79273461
      1.15000000	      1.07481981	     -3.30017238	     -2.63913316	     -0.15726843	      1.00460697	      0.32774240	    -16.33214101	      7.97704704	      4.36614104	    -11.63016608	     15.58223495	     -3.63732303	      4.35625174	     18.40471296	     -2.18974563	     -0.50631959	      4.61287269	     -0.28128969	     -7.38232090	      1.87061588	     -3.82954853	      1.02453807	      9.83937627
      1.15416667	      1.13489358	     -3.06132901	     -2.67525147	     -0.15142318	      1.00435004	      0.32738936	    -16.30088055	      7.71291406	      4.29116457	    -12.50115627	     15.60542978	     -3.64450465	      4.40431487	     18.41467749	     -1.87466097	     -0.25345347	      3.89275163	     -0.70524243	     -7.89541549	      1.94154153	     -3.86721372	      0.74230733	      9.86738676
      1.15833333	      1.21296706	     -2.82518951	     -2.70325946	     -0.14555163	      1.00415499	      0.32701010	    -16.27071935	      7.45341493	      4.20694244	    -13.40643319	     15.57708651	     -3.70211663	      4.48934960	     18.40448293	     -1.55834831	     -0.00575922	      3.16647753	     -1.16021331	     -8.45226978	      2.05571708	     -3.89677995	      0.45632704	      9.87499924
      1.16250000	      1.28703039	     -2.55437808	     -2.72341778	     -0.13962038	      1.00400397	      0.32664531	    -16.23462068	      7.16631042	      4.16367557	    -14.31003645	     15.46539185	     -3.83002186	      4.54715591	     18.41046961	     -1.20741964	      0.14563686	      2.40376795	     -1.54858152	     -8.77448877	      2.12178915	     -3.92910588	      0.09158726	      9.87269791
      1.16666667	      1.35309191	     -2.31524462	     -2.73972392	     -0.13372031	      1.00386989	      0.32619797	    -16.13630416	      6.90076946	      4.02486857	    -15.31772396	     15.38400933	     -3.81573669	      4.70250275	     18.40770721	     -0.88145707	      0.43018557	      1.68137949	     -2.10413776	     -9.46193293	      2.26866758	     -3.95138044	     -0.17106209	      9.86676993
      1.17083333	      1.44661053	     -2.04956690	     -2.74499503	     -0.12777713	      1.00381589	      0.32574929	    -16.06034220	      6.61070937	      3.89244755	    -16.33214258	     15.21960977	     -3.85326940	      4.91494309	     18.37646703	     -0.52634632	      0.65572587	      0.94931316	     -2.61300012	    -10.00957477	      2.43874774	     -4.00586043	     -0.49799281	      9.84391629
      1.17500000	      1.52972402	     -1.77750581	     -2.74650178	     -0.12181497	      1.00379023	      0.32527574	    -15.94503932	      6.31014452	      3.72872605	    -17.39528842	     15.01442793	     -3.85966603	      5.19122011	     18.35967968	     -0.16416276	      0.86063715	      0.20275010	     -3.09130480	    -10.50997032	      2.61931195	     -4.04405048	     -0.82935106	      9.81769583
